<svg width="800" height="600" viewBox="0 0 800 600" xmlns="http://www.w3.org/2000/svg">
  <defs>
    <linearGradient id="vanityWood" x1="0%" y1="0%" x2="100%" y2="100%">
      <stop offset="0%" style="stop-color:#8B4513;stop-opacity:1" />
      <stop offset="100%" style="stop-color:#A0522D;stop-opacity:1" />
    </linearGradient>
    <linearGradient id="marble" x1="0%" y1="0%" x2="100%" y2="100%">
      <stop offset="0%" style="stop-color:#F8F8FF;stop-opacity:1" />
      <stop offset="50%" style="stop-color:#E6E6FA;stop-opacity:1" />
      <stop offset="100%" style="stop-color:#F0F8FF;stop-opacity:1" />
    </linearGradient>
    <radialGradient id="mirror" cx="50%" cy="50%" r="50%">
      <stop offset="0%" style="stop-color:#F0F8FF;stop-opacity:0.9" />
      <stop offset="100%" style="stop-color:#E6F3FF;stop-opacity:0.7" />
    </radialGradient>
  </defs>
  
  <!-- Background -->
  <rect width="800" height="600" fill="#F5F5F5"/>
  
  <!-- Floor -->
  <rect x="0" y="450" width="800" height="150" fill="#E8E8E8"/>
  
  <!-- Wall -->
  <rect x="0" y="0" width="800" height="450" fill="#FFFFFF"/>
  
  <!-- Vanity Base -->
  <rect x="200" y="300" width="400" height="150" fill="url(#vanityWood)" stroke="#654321" stroke-width="2"/>
  
  <!-- Vanity Top -->
  <rect x="190" y="285" width="420" height="25" fill="url(#marble)"/>
  
  <!-- Sink -->
  <ellipse cx="400" cy="297" rx="60" ry="40" fill="#FFFFFF" stroke="#E0E0E0" stroke-width="2"/>
  <ellipse cx="400" cy="297" rx="50" ry="35" fill="#F8F8FF"/>
  
  <!-- Faucet -->
  <rect x="395" y="275" width="10" height="15" fill="#C0C0C0"/>
  <ellipse cx="400" cy="270" rx="8" ry="5" fill="#C0C0C0"/>
  <rect x="390" y="272" width="6" height="8" fill="#A0A0A0"/>
  <rect x="404" y="272" width="6" height="8" fill="#A0A0A0"/>
  
  <!-- Cabinet Doors -->
  <rect x="210" y="320" width="90" height="120" fill="url(#vanityWood)" stroke="#654321" stroke-width="1"/>
  <rect x="320" y="320" width="90" height="120" fill="url(#vanityWood)" stroke="#654321" stroke-width="1"/>
  <rect x="430" y="320" width="90" height="120" fill="url(#vanityWood)" stroke="#654321" stroke-width="1"/>
  <rect x="540" y="320" width="90" height="120" fill="url(#vanityWood)" stroke="#654321" stroke-width="1"/>
  
  <!-- Cabinet Handles -->
  <circle cx="280" cy="380" r="4" fill="#FFD700"/>
  <circle cx="390" cy="380" r="4" fill="#FFD700"/>
  <circle cx="500" cy="380" r="4" fill="#FFD700"/>
  <circle cx="610" cy="380" r="4" fill="#FFD700"/>
  
  <!-- Mirror -->
  <rect x="250" y="80" width="300" height="180" fill="url(#mirror)" stroke="#C0C0C0" stroke-width="3"/>
  <rect x="260" y="90" width="280" height="160" fill="#F0F8FF" opacity="0.8"/>
  
  <!-- Mirror Frame Details -->
  <rect x="245" y="75" width="310" height="10" fill="#B8860B"/>
  <rect x="245" y="260" width="310" height="10" fill="#B8860B"/>
  <rect x="245" y="75" width="10" height="195" fill="#B8860B"/>
  <rect x="545" y="75" width="10" height="195" fill="#B8860B"/>
  
  <!-- Lighting -->
  <rect x="280" y="60" width="240" height="15" fill="#FFD700" opacity="0.8"/>
  <circle cx="320" cy="67" r="8" fill="#FFF8DC"/>
  <circle cx="400" cy="67" r="8" fill="#FFF8DC"/>
  <circle cx="480" cy="67" r="8" fill="#FFF8DC"/>
  
  <!-- Side Storage -->
  <rect x="650" y="200" width="120" height="200" fill="url(#vanityWood)" stroke="#654321" stroke-width="2"/>
  <rect x="640" y="190" width="140" height="20" fill="url(#marble)"/>
  
  <!-- Side Storage Shelves -->
  <rect x="660" y="220" width="100" height="8" fill="#F5F5F5"/>
  <rect x="660" y="270" width="100" height="8" fill="#F5F5F5"/>
  <rect x="660" y="320" width="100" height="8" fill="#F5F5F5"/>
  <rect x="660" y="370" width="100" height="8" fill="#F5F5F5"/>
  
  <!-- Towels -->
  <rect x="670" y="230" width="80" height="30" fill="#4682B4"/>
  <rect x="670" y="280" width="80" height="30" fill="#FFFFFF"/>
  <rect x="670" y="330" width="80" height="30" fill="#F0E68C"/>
  
  <!-- Accessories -->
  <!-- Soap Dispenser -->
  <rect x="320" y="290" width="8" height="15" fill="#E6E6FA"/>
  <rect x="318" y="288" width="12" height="4" fill="#C0C0C0"/>
  
  <!-- Toothbrush Holder -->
  <rect x="470" y="292" width="15" height="10" fill="#FFFFFF"/>
  <rect x="473" y="294" width="2" height="6" fill="#FF69B4"/>
  <rect x="477" y="294" width="2" height="6" fill="#32CD32"/>
  <rect x="481" y="294" width="2" height="6" fill="#1E90FF"/>
  
  <!-- Decorative Plant -->
  <rect x="30" y="350" width="20" height="30" fill="#8B4513"/>
  <ellipse cx="40" cy="340" rx="25" ry="15" fill="#228B22"/>
  <ellipse cx="35" cy="335" rx="8" ry="5" fill="#32CD32"/>
  <ellipse cx="45" cy="335" rx="8" ry="5" fill="#32CD32"/>
  
  <!-- Floor Mat -->
  <rect x="150" y="420" width="500" height="20" fill="#708090"/>
  
  <!-- Wall Tiles -->
  <g stroke="#E0E0E0" stroke-width="0.5" fill="none">
    <line x1="50" y1="50" x2="750" y2="50"/>
    <line x1="50" y1="100" x2="750" y2="100"/>
    <line x1="50" y1="150" x2="750" y2="150"/>
    <line x1="50" y1="200" x2="750" y2="200"/>
    <line x1="50" y1="250" x2="750" y2="250"/>
    <line x1="100" y1="0" x2="100" y2="450"/>
    <line x1="150" y1="0" x2="150" y2="450"/>
    <line x1="200" y1="0" x2="200" y2="450"/>
    <line x1="300" y1="0" x2="300" y2="450"/>
    <line x1="400" y1="0" x2="400" y2="450"/>
    <line x1="500" y1="0" x2="500" y2="450"/>
    <line x1="600" y1="0" x2="600" y2="450"/>
    <line x1="700" y1="0" x2="700" y2="450"/>
  </g>
  
</svg>