<svg width="800" height="600" viewBox="0 0 800 600" xmlns="http://www.w3.org/2000/svg">
  <defs>
    <linearGradient id="woodGrain" x1="0%" y1="0%" x2="100%" y2="100%">
      <stop offset="0%" style="stop-color:#DEB887;stop-opacity:1" />
      <stop offset="50%" style="stop-color:#D2B48C;stop-opacity:1" />
      <stop offset="100%" style="stop-color:#BC9A6A;stop-opacity:1" />
    </linearGradient>
    <linearGradient id="interiorShelf" x1="0%" y1="0%" x2="0%" y2="100%">
      <stop offset="0%" style="stop-color:#F5F5F5;stop-opacity:1" />
      <stop offset="100%" style="stop-color:#E0E0E0;stop-opacity:1" />
    </linearGradient>
  </defs>
  
  <!-- Background -->
  <rect width="800" height="600" fill="#FAFAFA"/>
  
  <!-- Floor -->
  <rect x="0" y="520" width="800" height="80" fill="#E5E7EB"/>
  
  <!-- Walk-in Closet Structure -->
  <!-- Left Wall System -->
  <rect x="50" y="100" width="250" height="420" fill="url(#woodGrain)" stroke="#8B7355" stroke-width="2"/>
  
  <!-- Left Shelving -->
  <rect x="60" y="110" width="230" height="8" fill="url(#interiorShelf)"/>
  <rect x="60" y="180" width="230" height="8" fill="url(#interiorShelf)"/>
  <rect x="60" y="250" width="230" height="8" fill="url(#interiorShelf)"/>
  <rect x="60" y="320" width="230" height="8" fill="url(#interiorShelf)"/>
  <rect x="60" y="390" width="230" height="8" fill="url(#interiorShelf)"/>
  <rect x="60" y="460" width="230" height="8" fill="url(#interiorShelf)"/>
  
  <!-- Hanging Rod -->
  <rect x="60" y="130" width="230" height="4" fill="#C0C0C0"/>
  <circle cx="70" cy="132" r="2" fill="#A0A0A0"/>
  <circle cx="280" cy="132" r="2" fill="#A0A0A0"/>
  
  <!-- Clothes -->
  <rect x="80" y="135" width="8" height="40" fill="#FF6B6B"/>
  <rect x="95" y="135" width="8" height="35" fill="#4ECDC4"/>
  <rect x="110" y="135" width="8" height="45" fill="#45B7D1"/>
  <rect x="125" y="135" width="8" height="38" fill="#96CEB4"/>
  <rect x="140" y="135" width="8" height="42" fill="#FFEAA7"/>
  <rect x="155" y="135" width="8" height="36" fill="#DDA0DD"/>
  <rect x="170" y="135" width="8" height="44" fill="#F0E68C"/>
  
  <!-- Right Wall System -->
  <rect x="500" y="100" width="250" height="420" fill="url(#woodGrain)" stroke="#8B7355" stroke-width="2"/>
  
  <!-- Right Shelving -->
  <rect x="510" y="110" width="230" height="8" fill="url(#interiorShelf)"/>
  <rect x="510" y="160" width="230" height="8" fill="url(#interiorShelf)"/>
  <rect x="510" y="210" width="230" height="8" fill="url(#interiorShelf)"/>
  <rect x="510" y="260" width="230" height="8" fill="url(#interiorShelf)"/>
  <rect x="510" y="310" width="230" height="8" fill="url(#interiorShelf)"/>
  <rect x="510" y="360" width="230" height="8" fill="url(#interiorShelf)"/>
  <rect x="510" y="410" width="230" height="8" fill="url(#interiorShelf)"/>
  <rect x="510" y="460" width="230" height="8" fill="url(#interiorShelf)"/>
  
  <!-- Shoe Storage -->
  <rect x="520" y="420" width="40" height="30" fill="#8B4513"/>
  <rect x="570" y="420" width="40" height="30" fill="#2F4F4F"/>
  <rect x="620" y="420" width="40" height="30" fill="#800000"/>
  <rect x="670" y="420" width="40" height="30" fill="#191970"/>
  
  <rect x="520" y="470" width="40" height="30" fill="#CD853F"/>
  <rect x="570" y="470" width="40" height="30" fill="#696969"/>
  <rect x="620" y="470" width="40" height="30" fill="#8B0000"/>
  <rect x="670" y="470" width="40" height="30" fill="#483D8B"/>
  
  <!-- Drawers -->
  <rect x="520" y="270" width="210" height="30" fill="url(#woodGrain)" stroke="#8B7355" stroke-width="1"/>
  <rect x="520" y="320" width="210" height="30" fill="url(#woodGrain)" stroke="#8B7355" stroke-width="1"/>
  <rect x="520" y="370" width="210" height="30" fill="url(#woodGrain)" stroke="#8B7355" stroke-width="1"/>
  
  <!-- Drawer Handles -->
  <rect x="700" y="282" width="20" height="6" fill="#C0C0C0"/>
  <rect x="700" y="332" width="20" height="6" fill="#C0C0C0"/>
  <rect x="700" y="382" width="20" height="6" fill="#C0C0C0"/>
  
  <!-- Center Island -->
  <rect x="320" y="350" width="160" height="120" fill="url(#woodGrain)" stroke="#8B7355" stroke-width="2"/>
  <rect x="310" y="340" width="180" height="20" fill="url(#interiorShelf)"/>
  
  <!-- Island Drawers -->
  <rect x="330" y="360" width="140" height="25" fill="url(#woodGrain)" stroke="#8B7355" stroke-width="1"/>
  <rect x="330" y="395" width="140" height="25" fill="url(#woodGrain)" stroke="#8B7355" stroke-width="1"/>
  <rect x="330" y="430" width="140" height="25" fill="url(#woodGrain)" stroke="#8B7355" stroke-width="1"/>
  
  <!-- Island Handles -->
  <rect x="450" y="369" width="15" height="4" fill="#C0C0C0"/>
  <rect x="450" y="404" width="15" height="4" fill="#C0C0C0"/>
  <rect x="450" y="439" width="15" height="4" fill="#C0C0C0"/>
  
  <!-- Lighting -->
  <rect x="80" y="95" width="200" height="5" fill="#FFF8DC" opacity="0.8"/>
  <rect x="520" y="95" width="200" height="5" fill="#FFF8DC" opacity="0.8"/>
  <circle cx="400" cy="80" r="20" fill="#FFD700" opacity="0.7"/>
  
  <!-- Mirror -->
  <rect x="330" y="150" width="140" height="180" fill="#E6F3FF" stroke="#B0C4DE" stroke-width="3"/>
  <rect x="340" y="160" width="120" height="160" fill="#F0F8FF"/>
  
  <!-- Accessories -->
  <!-- Jewelry Organizer -->
  <rect x="70" y="270" width="60" height="40" fill="#8B4513" stroke="#654321" stroke-width="1"/>
  <circle cx="85" cy="285" r="3" fill="#FFD700"/>
  <circle cx="100" cy="285" r="3" fill="#C0C0C0"/>
  <circle cx="115" cy="285" r="3" fill="#FFD700"/>
  <circle cx="85" cy="300" r="3" fill="#FF69B4"/>
  <circle cx="100" cy="300" r="3" fill="#32CD32"/>
  <circle cx="115" cy="300" r="3" fill="#FF4500"/>
  
  <!-- Ties/Belts -->
  <rect x="190" y="270" width="80" height="40" fill="#8B4513" stroke="#654321" stroke-width="1"/>
  <rect x="200" y="280" width="60" height="2" fill="#2F4F4F"/>
  <rect x="200" y="285" width="60" height="2" fill="#800000"/>
  <rect x="200" y="290" width="60" height="2" fill="#191970"/>
  <rect x="200" y="295" width="60" height="2" fill="#006400"/>
  <rect x="200" y="300" width="60" height="2" fill="#8B0000"/>
  
</svg>